<svg id="Layer_1" data-name="Layer 1" xmlns="http://www.w3.org/2000/svg" viewBox="0 0 750 750"><defs><style>.cls-1{fill:#23356d;}.cls-2{fill:#a51e28;}</style></defs><title>dickwyn-emblem</title><path class="cls-1" d="M771,403.33c0,210.63-164.37,375-375,375A373.45,373.45,0,0,1,189.8,716.71l48.4-65.79a310.36,310.36,0,0,0,165.74,47.46c172.3,0,306.75-131.5,306.75-300,0-165.82-137.19-300-306.75-300-172.29,0-306.75,131.49-306.75,300a293.63,293.63,0,0,0,30.27,130.2L53.79,557.1A374.05,374.05,0,0,1,21,403.33c0-210.63,164.37-375,375-375C603.24,28.33,771,196.06,771,403.33Z" transform="translate(-20.97 -28.33)"/><path class="cls-2" d="M710.69,398.38c0,168.5-134.45,300-306.75,300A310.36,310.36,0,0,1,238.2,650.92l55.71-74.68A216.72,216.72,0,0,0,426,620.83c122.16,0,217.5-95.32,217.5-217.5A217.37,217.37,0,0,0,426,185.83c-122.16,0-217.5,95.34-217.5,217.5a217.21,217.21,0,0,0,17.7,86.16l-98.71,39.09a293.63,293.63,0,0,1-30.27-130.2c0-168.51,134.46-300,306.75-300C573.5,98.38,710.69,232.56,710.69,398.38Z" transform="translate(-20.97 -28.33)"/></svg>