<?xml version="1.0" encoding="UTF-8"?>
<svg width="457px" height="101px" viewBox="0 0 457 101" version="1.1" xmlns="http://www.w3.org/2000/svg" xmlns:xlink="http://www.w3.org/1999/xlink">
    <title>DWY</title>
    <g id="Page-1" stroke="none" stroke-width="1" fill="none" fill-rule="evenodd">
        <g id="Artboard" transform="translate(-21.000000, -49.000000)" fill="#000000" fill-rule="nonzero">
            <path d="M85.6142578,150 C91.1318359,150 96.4296875,149.645996 101.507812,148.937988 C106.585938,148.22998 111.322266,147.094727 115.716797,145.532227 C120.111328,143.969727 124.103027,141.894531 127.691895,139.306641 C131.280762,136.71875 134.356934,133.569336 136.92041,129.858398 C139.483887,126.147461 141.473633,121.789551 142.889648,116.784668 C144.305664,111.779785 145.013672,106.054688 145.013672,99.609375 C145.013672,93.2128906 144.305664,87.5244141 142.889648,82.5439453 C141.473633,77.5634766 139.483887,73.2055664 136.92041,69.4702148 C134.356934,65.7348633 131.268555,62.5854492 127.655273,60.0219727 C124.041992,57.4584961 120.025879,55.3955078 115.606934,53.8330078 C111.187988,52.2705078 106.439453,51.1352539 101.361328,50.4272461 C96.2832031,49.7192383 90.9853516,49.3652344 85.4677734,49.3652344 L85.4677734,49.3652344 L21.7470703,49.3652344 L21.7470703,150 L85.6142578,150 Z M82.6845703,128.100586 L48.9199219,128.100586 L48.9199219,71.2646484 L82.6845703,71.2646484 C89.0810547,71.2646484 94.5009766,71.8383789 98.9443359,72.9858398 C103.387695,74.1333008 106.98877,75.8666992 109.747559,78.1860352 C112.506348,80.5053711 114.508301,83.4472656 115.753418,87.0117188 C116.998535,90.5761719 117.621094,94.7753906 117.621094,99.609375 C117.621094,104.443359 116.998535,108.642578 115.753418,112.207031 C114.508301,115.771484 112.506348,118.737793 109.747559,121.105957 C106.98877,123.474121 103.387695,125.231934 98.9443359,126.379395 C94.5009766,127.526855 89.0810547,128.100586 82.6845703,128.100586 L82.6845703,128.100586 Z M225.433594,150 L251.654297,82.3242188 L277.948242,150 L308.124023,150 L348.553711,49.3652344 L320.355469,49.3652344 L292.523438,119.238281 L266.81543,49.3652344 L236.566406,49.3652344 L210.272461,117.773438 L183.026367,49.3652344 L154.754883,49.3652344 L195.257812,150 L225.433594,150 Z M428.973633,150 L428.973633,108.911133 L477.75293,49.3652344 L447.28418,49.3652344 L415.49707,89.8681641 L383.563477,49.3652344 L353.094727,49.3652344 L401.874023,108.911133 L401.874023,150 L428.973633,150 Z" id="DWY"></path>
        </g>
    </g>
</svg>