<svg width="163" height="137" viewBox="0 0 163 137" fill="none" xmlns="http://www.w3.org/2000/svg">
<g clip-path="url(#clip0)">
<path fill-rule="evenodd" clip-rule="evenodd" d="M39.635 53.1056C42.9166 49.3142 46.5861 45.6435 50.6435 42.0933L97.6088 0.999975L161.938 75.4867L115.081 116.486C111.023 120.036 106.901 123.183 102.714 125.926C98.5276 128.669 94.31 130.884 90.0617 132.571C85.8134 134.258 81.5414 135.315 77.2456 135.742C72.9499 136.17 68.6656 135.826 64.3928 134.71C60.1199 133.595 55.871 131.65 51.646 128.874C47.4211 126.099 43.2641 122.344 39.1753 117.61C35.0552 112.839 31.9161 108.146 29.7581 103.53C27.6001 98.9148 26.2775 94.409 25.7904 90.0129C25.3033 85.6168 25.5522 81.3064 26.537 77.0818C27.5218 72.8572 29.1306 68.7529 31.3634 64.7688C33.5961 60.7848 36.3533 56.897 39.635 53.1056ZM91.626 34.6928L66.7969 56.4176C62.0932 60.5333 58.4744 64.4452 55.9404 68.1535C53.4064 71.8617 51.882 75.4798 51.3671 79.0077C50.8523 82.5356 51.2763 86.0193 52.6392 89.4587C54.0021 92.8981 56.2286 96.4068 59.3187 99.9848C62.4087 103.563 65.5508 106.27 68.745 108.107C71.9391 109.945 75.2918 110.834 78.8031 110.776C82.3144 110.717 86.0706 109.683 90.0715 107.674C94.0725 105.664 98.4248 102.601 103.129 98.4858L127.958 76.761L91.626 34.6928Z" fill="#999999"/>
<path fill-rule="evenodd" clip-rule="evenodd" d="M14.6713 53.154C17.9529 49.3626 21.6224 45.6919 25.6798 42.1417L72.6451 1.04838L136.975 75.5351L90.117 116.534C86.0596 120.084 81.9375 123.231 77.7507 125.974C73.5639 128.718 69.3463 130.933 65.098 132.619C60.8497 134.306 56.5776 135.363 52.2819 135.791C47.9862 136.218 43.7019 135.874 39.4291 134.759C35.1562 133.643 30.9073 131.698 26.6823 128.923C22.4573 126.147 18.3004 122.393 14.2115 117.658C10.0915 112.887 6.9524 108.194 4.79437 103.579C2.63635 98.9633 1.31379 94.4574 0.82669 90.0613C0.339593 85.6652 0.588461 81.3548 1.57329 77.1302C2.55811 72.9056 4.1669 68.8013 6.39965 64.8172C8.6324 60.8332 11.3896 56.9454 14.6713 53.154ZM66.6623 34.7412L41.8332 56.466C37.1295 60.5816 33.5107 64.4936 30.9767 68.2018C28.4428 71.9101 26.9183 75.5282 26.4035 79.0561C25.8886 82.584 26.3126 86.0676 27.6755 89.507C29.0384 92.9465 31.2649 96.4552 34.355 100.033C37.4451 103.611 40.5872 106.319 43.7813 108.156C46.9754 109.993 50.3282 110.882 53.8395 110.824C57.3508 110.766 61.1069 109.732 65.1079 107.722C69.1088 105.712 73.4611 102.65 78.1649 98.5342L102.994 76.8094L66.6623 34.7412Z" fill="#AD102F"/>
</g>
<defs>
<clipPath id="clip0">
<rect width="163" height="137" fill="white"/>
</clipPath>
</defs>
</svg>
